<svg xmlns="http://www.w3.org/2000/svg" xmlns:xlink="http://www.w3.org/1999/xlink" viewBox="0 0 229.64 110.78"><defs><style>.cls-1,.cls-4{fill:none;}.cls-2{fill:#fff;}.cls-3{clip-path:url(#clip-path);}.cls-4{stroke:#000;stroke-miterlimit:10;stroke-width:1.22px;}</style><clipPath id="clip-path" transform="translate(-10.81 -9.85)"><rect id="SVGID" class="cls-1" width="259.2" height="129.6"/></clipPath></defs><title>tac_logo</title><g id="Layer_2" data-name="Layer 2"><g id="Layer_1-2" data-name="Layer 1"><rect class="cls-2" width="110.77" height="110.78"/><polygon points="11.25 23.8 7.34 23.8 7.34 21.19 17.98 21.19 17.98 23.8 14.07 23.8 14.07 34.04 11.25 34.04 11.25 23.8"/><g class="cls-3"><path d="M36.27,44.11a7,7,0,0,1-2.74-.52,6.8,6.8,0,0,1-2.15-1.41A6.4,6.4,0,0,1,30,40.09a6.74,6.74,0,0,1-.5-2.58v0A6.53,6.53,0,0,1,30,34.89a6.79,6.79,0,0,1,1.43-2.11,6.62,6.62,0,0,1,2.16-1.43,7.48,7.48,0,0,1,5.48,0,6.8,6.8,0,0,1,2.15,1.41,6.32,6.32,0,0,1,1.41,2.09,6.6,6.6,0,0,1,.51,2.58v0a6.53,6.53,0,0,1-.51,2.58A6.62,6.62,0,0,1,39,43.59a7,7,0,0,1-2.74.52m0-2.6a3.79,3.79,0,0,0,1.57-.31,3.64,3.64,0,0,0,1.21-.87,3.94,3.94,0,0,0,.79-1.27,4.18,4.18,0,0,0,.28-1.55v0a4.27,4.27,0,0,0-.28-1.56,3.92,3.92,0,0,0-.81-1.29,4.16,4.16,0,0,0-1.23-.87,4,4,0,0,0-3.12,0,3.58,3.58,0,0,0-1.22.87,3.94,3.94,0,0,0-.79,1.27,4.22,4.22,0,0,0-.28,1.55v0A4.27,4.27,0,0,0,32.7,39a3.92,3.92,0,0,0,.81,1.29,4.08,4.08,0,0,0,1.24.87,3.77,3.77,0,0,0,1.55.32" transform="translate(-10.81 -9.85)"/><path d="M45.61,31.05h5.87a5.07,5.07,0,0,1,3.75,1.3,4,4,0,0,1,1.1,2.94v0a4.11,4.11,0,0,1-.76,2.55,4.39,4.39,0,0,1-2,1.43l3.14,4.59H53.41l-2.75-4.1H48.44v4.1H45.61Zm5.69,6.24a2.32,2.32,0,0,0,1.6-.5,1.65,1.65,0,0,0,.56-1.32v0a1.6,1.6,0,0,0-.59-1.37,2.55,2.55,0,0,0-1.63-.46h-2.8v3.69Z" transform="translate(-10.81 -9.85)"/><path d="M65.12,44.11a7,7,0,0,1-2.74-.52,6.8,6.8,0,0,1-2.15-1.41,6.4,6.4,0,0,1-1.42-2.09,6.74,6.74,0,0,1-.5-2.58v0a6.53,6.53,0,0,1,.51-2.58,6.54,6.54,0,0,1,3.59-3.54,7.48,7.48,0,0,1,5.48,0A6.8,6.8,0,0,1,70,32.76a6.51,6.51,0,0,1,1.42,2.09,6.78,6.78,0,0,1,.5,2.58v0a6.53,6.53,0,0,1-.51,2.58A6.79,6.79,0,0,1,70,42.16a6.62,6.62,0,0,1-2.16,1.43,7,7,0,0,1-2.74.52m0-2.6a3.79,3.79,0,0,0,1.57-.31,3.64,3.64,0,0,0,1.21-.87,3.94,3.94,0,0,0,.79-1.27A4.18,4.18,0,0,0,69,37.51v0a4.27,4.27,0,0,0-.28-1.56,3.92,3.92,0,0,0-.81-1.29,4.16,4.16,0,0,0-1.23-.87,4,4,0,0,0-3.12,0,3.58,3.58,0,0,0-1.22.87,3.94,3.94,0,0,0-.79,1.27,4.22,4.22,0,0,0-.28,1.55v0A4.27,4.27,0,0,0,61.55,39a3.92,3.92,0,0,0,.81,1.29,4,4,0,0,0,1.23.87,3.85,3.85,0,0,0,1.56.32" transform="translate(-10.81 -9.85)"/><polygon points="63.65 21.19 66.26 21.19 72.28 29.1 72.28 21.19 75.07 21.19 75.07 34.04 72.67 34.04 66.44 25.87 66.44 34.04 63.65 34.04 63.65 21.19"/><polygon points="81.14 23.8 77.23 23.8 77.23 21.19 87.87 21.19 87.87 23.8 83.97 23.8 83.97 34.04 81.14 34.04 81.14 23.8"/><path d="M106.16,44.11a7,7,0,0,1-2.73-.52,6.85,6.85,0,0,1-2.16-1.41,6.22,6.22,0,0,1-1.41-2.09,6.56,6.56,0,0,1-.51-2.58v0a6.36,6.36,0,0,1,.52-2.58,6.59,6.59,0,0,1,1.42-2.11,6.73,6.73,0,0,1,2.16-1.43,7.09,7.09,0,0,1,2.75-.52,7,7,0,0,1,2.73.52,6.8,6.8,0,0,1,2.15,1.41,6.51,6.51,0,0,1,1.42,2.09,6.59,6.59,0,0,1,.5,2.58v0a6.53,6.53,0,0,1-.51,2.58,6.56,6.56,0,0,1-3.58,3.54,7.09,7.09,0,0,1-2.75.52m0-2.6a3.78,3.78,0,0,0,1.56-.31,3.44,3.44,0,0,0,1.21-.87,3.78,3.78,0,0,0,.79-1.27,4.19,4.19,0,0,0,.29-1.55v0a4.28,4.28,0,0,0-.29-1.56,3.76,3.76,0,0,0-.81-1.29,4,4,0,0,0-1.22-.87,4,4,0,0,0-3.13,0,3.58,3.58,0,0,0-1.22.87,4.12,4.12,0,0,0-.79,1.27,4.44,4.44,0,0,0-.28,1.55v0a4.49,4.49,0,0,0,.28,1.56,3.92,3.92,0,0,0,.81,1.29,4.08,4.08,0,0,0,1.24.87,3.78,3.78,0,0,0,1.56.32" transform="translate(-10.81 -9.85)"/><path d="M24.79,99.72a6.84,6.84,0,0,1-2.62-.51,6.52,6.52,0,0,1-2.1-1.41,6.12,6.12,0,0,1-1.37-2.1,6.6,6.6,0,0,1-.5-2.59v0a6.73,6.73,0,0,1,1.87-4.68A6.4,6.4,0,0,1,22.19,87a6.79,6.79,0,0,1,2.71-.53,8.28,8.28,0,0,1,1.65.15,6.38,6.38,0,0,1,1.34.41,5.53,5.53,0,0,1,1.12.62,7.31,7.31,0,0,1,.95.8l-1.79,2.08a7.27,7.27,0,0,0-1.54-1.07A4,4,0,0,0,24.88,89a3.52,3.52,0,0,0-1.49.31,3.56,3.56,0,0,0-1.19.87,3.9,3.9,0,0,0-.77,1.27A4.39,4.39,0,0,0,21.16,93v0a4.5,4.5,0,0,0,.27,1.57,4,4,0,0,0,.76,1.28,3.52,3.52,0,0,0,1.18.87,3.44,3.44,0,0,0,1.51.33,3.9,3.9,0,0,0,1.86-.41,7.75,7.75,0,0,0,1.52-1.1l1.8,1.82a11.24,11.24,0,0,1-1,.95,7,7,0,0,1-1.17.73,5.88,5.88,0,0,1-1.38.45,8,8,0,0,1-1.69.16" transform="translate(-10.81 -9.85)"/><path d="M39.26,99.73a7.19,7.19,0,0,1-2.74-.53,6.66,6.66,0,0,1-2.15-1.42A6.3,6.3,0,0,1,33,95.69a6.7,6.7,0,0,1-.5-2.58v0A6.53,6.53,0,0,1,33,90.5a6.76,6.76,0,0,1,1.42-2.11A6.61,6.61,0,0,1,36.55,87,7.35,7.35,0,0,1,42,87a6.8,6.8,0,0,1,2.15,1.41,6.3,6.3,0,0,1,1.42,2.09A6.7,6.7,0,0,1,46.1,93v0a6.53,6.53,0,0,1-.51,2.58,6.79,6.79,0,0,1-1.43,2.11A6.62,6.62,0,0,1,42,99.2a7.23,7.23,0,0,1-2.74.53m0-2.61a3.64,3.64,0,0,0,1.57-.32,3.47,3.47,0,0,0,1.21-.86,4.09,4.09,0,0,0,1.07-2.83v0a4.27,4.27,0,0,0-.28-1.56,3.92,3.92,0,0,0-.81-1.29,4.24,4.24,0,0,0-1.22-.87A3.71,3.71,0,0,0,39.26,89a3.81,3.81,0,0,0-1.56.31,3.58,3.58,0,0,0-1.22.87,3.94,3.94,0,0,0-.79,1.27A4.18,4.18,0,0,0,35.41,93v0a4.27,4.27,0,0,0,.28,1.56,3.87,3.87,0,0,0,.81,1.28,3.94,3.94,0,0,0,1.24.88,3.77,3.77,0,0,0,1.55.32" transform="translate(-10.81 -9.85)"/><path d="M55.05,99.7A5.61,5.61,0,0,1,51,98.26,5.68,5.68,0,0,1,49.48,94V86.66h2.83v7.26A3.41,3.41,0,0,0,53,96.3a2.64,2.64,0,0,0,2,.79,2.69,2.69,0,0,0,2-.76A3.25,3.25,0,0,0,57.86,94V86.66h2.82V93.9a7.49,7.49,0,0,1-.39,2.54,4.85,4.85,0,0,1-1.13,1.82,4.69,4.69,0,0,1-1.77,1.08,7.18,7.18,0,0,1-2.34.36" transform="translate(-10.81 -9.85)"/><polygon points="54.19 76.8 56.8 76.8 62.81 84.71 62.81 76.8 65.6 76.8 65.6 89.64 63.2 89.64 56.98 81.48 56.98 89.64 54.19 89.64 54.19 76.8"/><path d="M87,99.72a6.85,6.85,0,0,1-2.63-.51,6.37,6.37,0,0,1-2.09-1.41,6.29,6.29,0,0,1-1.38-2.1,6.79,6.79,0,0,1-.5-2.59v0a6.68,6.68,0,0,1,1.88-4.68A6.25,6.25,0,0,1,84.36,87a6.79,6.79,0,0,1,2.71-.53,8.28,8.28,0,0,1,1.65.15,6.38,6.38,0,0,1,1.34.41,5.53,5.53,0,0,1,1.12.62,7.31,7.31,0,0,1,.95.8l-1.79,2.08a7,7,0,0,0-1.54-1.07A4,4,0,0,0,87.05,89a3.52,3.52,0,0,0-1.49.31,3.66,3.66,0,0,0-1.19.87,4.05,4.05,0,0,0-.76,1.27A4.18,4.18,0,0,0,83.33,93v0a4.29,4.29,0,0,0,.28,1.57,3.82,3.82,0,0,0,.76,1.28,3.38,3.38,0,0,0,1.17.87,3.44,3.44,0,0,0,1.51.33,4,4,0,0,0,1.87-.41,8,8,0,0,0,1.51-1.1l1.8,1.82a10.08,10.08,0,0,1-1,.95,6.88,6.88,0,0,1-1.16.73,6,6,0,0,1-1.39.45,7.86,7.86,0,0,1-1.68.16" transform="translate(-10.81 -9.85)"/><rect x="84.88" y="76.8" width="2.82" height="12.84"/><polygon points="92.73 76.8 95.56 76.8 95.56 87.08 101.95 87.08 101.95 89.64 92.73 89.64 92.73 76.8"/><rect x="7.29" y="96.15" width="94.87" height="5.39"/><path d="M47.38,51.68H59.54c3.36,0,5.95.9,7.75,2.69a8.26,8.26,0,0,1,2.27,6.08v.08A8.35,8.35,0,0,1,68,65.79a9.07,9.07,0,0,1-4.11,3l6.49,9.5H63.54l-5.7-8.51h-4.6v8.51H47.38ZM59.16,64.6a4.88,4.88,0,0,0,3.33-1,3.46,3.46,0,0,0,1.16-2.73v-.08a3.38,3.38,0,0,0-1.22-2.84,5.33,5.33,0,0,0-3.38-1H53.24V64.6Z" transform="translate(-10.81 -9.85)"/><polygon points="67.19 47.22 59.09 47.22 59.09 41.82 81.13 41.82 81.13 47.22 73.04 47.22 73.04 68.42 67.19 68.42 67.19 47.22"/><path d="M103,78.64a17.71,17.71,0,0,1-6-1,15.88,15.88,0,0,1-5.32-3.22l3.46-4.14a17,17,0,0,0,3.74,2.36,10,10,0,0,0,4.19.87,5.13,5.13,0,0,0,2.83-.66A2.11,2.11,0,0,0,107,71V70.9a2.31,2.31,0,0,0-.21-1,2.13,2.13,0,0,0-.8-.82,8.19,8.19,0,0,0-1.63-.75,26.68,26.68,0,0,0-2.72-.8c-1.34-.36-2.55-.73-3.65-1.12a10.09,10.09,0,0,1-2.77-1.48,6.05,6.05,0,0,1-1.76-2.22,7.72,7.72,0,0,1-.64-3.31v-.08A7.45,7.45,0,0,1,95.4,53.5a8.57,8.57,0,0,1,2.94-1.63,11.88,11.88,0,0,1,3.77-.57,16,16,0,0,1,5.37.87,15.82,15.82,0,0,1,4.5,2.51l-3,4.41a18.5,18.5,0,0,0-3.5-1.92,8.83,8.83,0,0,0-3.41-.71,4.17,4.17,0,0,0-2.57.67,2,2,0,0,0-.86,1.65v.08A2.34,2.34,0,0,0,98.86,60a2.22,2.22,0,0,0,.89.85,7.47,7.47,0,0,0,1.77.72c.75.23,1.69.5,2.83.8a26.91,26.91,0,0,1,3.59,1.2,9.93,9.93,0,0,1,2.66,1.59,6.13,6.13,0,0,1,1.64,2.19,7.52,7.52,0,0,1,.54,3v.08a8.22,8.22,0,0,1-.72,3.51,7.28,7.28,0,0,1-2,2.58A8.91,8.91,0,0,1,107,78.09a13.28,13.28,0,0,1-4,.55" transform="translate(-10.81 -9.85)"/><polygon points="21.5 68.32 7.44 68.32 14.47 54.67 21.5 41.03 28.53 54.67 35.56 68.32 21.5 68.32"/><rect x="7.29" y="9.24" width="94.87" height="5.39"/><rect x="134.23" y="96.15" width="94.87" height="5.39"/><rect x="134.23" y="9.24" width="94.87" height="5.39"/></g><path d="M147.86,60h-3.32V57.74h9V60h-3.31v8.67h-2.39Z" transform="translate(-10.81 -9.85)"/><path d="M155.39,57.74h2.4v4.31h4.41V57.74h2.4V68.62h-2.4V64.26h-4.41v4.36h-2.4Z" transform="translate(-10.81 -9.85)"/><path d="M167.21,57.74h8.21v2.13h-5.83v2.21h5.13v2.13h-5.13V66.5h5.91v2.12h-8.29Z" transform="translate(-10.81 -9.85)"/><path d="M179.94,63.21v0a5.54,5.54,0,0,1,5.68-5.63,5.63,5.63,0,0,1,4.29,1.68L188.38,61a4,4,0,0,0-2.78-1.23,3.23,3.23,0,0,0-3.16,3.39v0a3.24,3.24,0,0,0,3.16,3.42,3.89,3.89,0,0,0,2.86-1.27L190,66.87a5.57,5.57,0,0,1-4.47,1.94A5.49,5.49,0,0,1,179.94,63.21Z" transform="translate(-10.81 -9.85)"/><path d="M191.69,57.74h2.4V68.62h-2.4Z" transform="translate(-10.81 -9.85)"/><path d="M199,60h-3.31V57.74h9V60h-3.31v8.67H199Z" transform="translate(-10.81 -9.85)"/><path d="M209.63,64.33l-4.18-6.59h2.8l2.6,4.37,2.64-4.37h2.72L212,64.29v4.33h-2.4Z" transform="translate(-10.81 -9.85)"/><path d="M218.77,63.21v0a5.64,5.64,0,0,1,5.8-5.63,5.58,5.58,0,0,1,5.77,5.6v0a5.79,5.79,0,0,1-11.57,0Zm9.07,0v0a3.31,3.31,0,0,0-3.3-3.42,3.26,3.26,0,0,0-3.26,3.39v0a3.3,3.3,0,0,0,3.29,3.42A3.26,3.26,0,0,0,227.84,63.21Z" transform="translate(-10.81 -9.85)"/><path d="M232.16,57.74h8.29v2.18h-5.9v2.31h5.2v2.18h-5.2v4.21h-2.39Z" transform="translate(-10.81 -9.85)"/><path d="M148.65,88.51h-4V85.84h10.89v2.67h-4V99h-2.89Z" transform="translate(-10.81 -9.85)"/><path d="M156.09,92.45v0a7,7,0,0,1,14,0v0a6.8,6.8,0,0,1-7,6.8A6.72,6.72,0,0,1,156.09,92.45Zm10.94,0v0a4,4,0,0,0-4-4.13,3.93,3.93,0,0,0-3.94,4.1v0a4,4,0,0,0,4,4.13A3.93,3.93,0,0,0,167,92.45Z" transform="translate(-10.81 -9.85)"/><path d="M172.25,85.84h6a5.21,5.21,0,0,1,3.83,1.34,4.12,4.12,0,0,1,1.13,3v0a4.08,4.08,0,0,1-2.82,4.07L183.6,99h-3.38l-2.81-4.2h-2.27V99h-2.89Zm5.81,6.39c1.41,0,2.22-.75,2.22-1.86v0c0-1.24-.86-1.88-2.27-1.88h-2.87v3.78Z" transform="translate(-10.81 -9.85)"/><path d="M184.86,92.45v0a6.8,6.8,0,0,1,7-6.79,6.72,6.72,0,0,1,7,6.76v0a7,7,0,0,1-14,0Zm10.94,0v0a4,4,0,0,0-4-4.13,3.94,3.94,0,0,0-3.94,4.1v0a4,4,0,0,0,4,4.13A3.93,3.93,0,0,0,195.8,92.45Z" transform="translate(-10.81 -9.85)"/><path d="M200.65,85.84h2.66l6.16,8.09V85.84h2.85V99h-2.46l-6.36-8.35V99h-2.85Z" transform="translate(-10.81 -9.85)"/><path d="M218.54,88.51h-4V85.84h10.88v2.67h-4V99h-2.89Z" transform="translate(-10.81 -9.85)"/><path d="M225.6,92.45v0a7,7,0,0,1,14,0v0a6.8,6.8,0,0,1-7,6.8A6.72,6.72,0,0,1,225.6,92.45Zm10.94,0v0a4,4,0,0,0-4-4.13,3.93,3.93,0,0,0-3.94,4.1v0a4,4,0,0,0,4,4.13A3.93,3.93,0,0,0,236.54,92.45Z" transform="translate(-10.81 -9.85)"/><line class="cls-4" x1="118.08" y1="8.9" x2="118.08" y2="101.93"/><path d="M145,30.58h8.4v2.21h-6v2.35h5.26v2.21h-5.26v4.27H145Z" transform="translate(-10.81 -9.85)"/><path d="M155.19,36.89V30.58h2.43v6.25c0,1.79.89,2.72,2.38,2.72s2.38-.9,2.38-2.65V30.58h2.42v6.23c0,3.34-1.87,5-4.84,5S155.19,40.14,155.19,36.89Z" transform="translate(-10.81 -9.85)"/><path d="M167.28,30.58h2.23l5.17,6.8v-6.8h2.4v11H175l-5.35-7v7h-2.39Z" transform="translate(-10.81 -9.85)"/><path d="M179.73,30.58H184c3.47,0,5.86,2.38,5.86,5.49v0A5.52,5.52,0,0,1,184,41.62h-4.3Zm4.3,8.85a3.14,3.14,0,0,0,3.32-3.3v0A3.17,3.17,0,0,0,184,32.77h-1.88v6.66Z" transform="translate(-10.81 -9.85)"/><path d="M192.05,30.58h8.32v2.16h-5.91V35h5.2v2.16h-5.2v2.32h6v2.16h-8.4Z" transform="translate(-10.81 -9.85)"/><path d="M202.61,30.58h4.3c3.47,0,5.87,2.38,5.87,5.49v0a5.53,5.53,0,0,1-5.87,5.52h-4.3Zm4.3,8.85a3.15,3.15,0,0,0,3.33-3.3v0a3.18,3.18,0,0,0-3.33-3.33H205v6.66Z" transform="translate(-10.81 -9.85)"/><path d="M219.66,30.58h5.13a4,4,0,0,1,2.88,1,2.56,2.56,0,0,1,.76,1.88v0A2.58,2.58,0,0,1,227,35.85,2.7,2.7,0,0,1,229,38.56v0c0,2-1.64,3-4.13,3h-5.25ZM224.27,35c1.07,0,1.74-.34,1.74-1.16v0c0-.73-.56-1.14-1.59-1.14H222V35Zm.64,4.45c1.07,0,1.72-.38,1.72-1.2v0c0-.74-.55-1.2-1.8-1.2H222v2.43Z" transform="translate(-10.81 -9.85)"/><path d="M233.69,37.27l-4.24-6.69h2.84L234.92,35l2.68-4.43h2.76l-4.24,6.64v4.4h-2.43Z" transform="translate(-10.81 -9.85)"/></g></g></svg>