<svg xmlns="http://www.w3.org/2000/svg" viewBox="0 0 248.69 62.84"><title>oac_logo</title><g id="Layer_2" data-name="Layer 2"><g id="Layer_1-2" data-name="Layer 1"><path d="M59.32,42.4l9.33,16.17-7.38,4.27-9.53-16.5a39.81,39.81,0,0,0,7.58-3.94Z"/><path d="M20.16,35.26,37.67,4.92,55,34.92a31.16,31.16,0,0,1-7.62,3.84L37.67,22,27.89,39l-4.4,7.6L14.1,62.84,6.71,58.57l9.14-15.83,4.31-7.48Z"/><path d="M18.6,24.46A12.23,12.23,0,1,1,30.83,12.23,12.25,12.25,0,0,1,18.6,24.46Zm0-18a5.82,5.82,0,1,0,5.81,5.82A5.82,5.82,0,0,0,18.6,6.41Z"/><path d="M62.21,40.28a34.51,34.51,0,0,1-2.89,2.12,39.81,39.81,0,0,1-7.58,3.94A39.48,39.48,0,0,1,26.39,47.5c-1-.28-1.95-.6-2.9-1l4.4-7.6c.29.1.58.19.88.27a30.9,30.9,0,0,0,18.6-.46A31.16,31.16,0,0,0,55,34.92c.62-.43,1.23-.88,1.82-1.36l5.4,6.72ZM15.85,42.74A39.72,39.72,0,0,1,0,22.81l8.11-2.93A31.07,31.07,0,0,0,20.16,35.26l-4.31,7.48Z"/><path d="M82.49,30.46a4.76,4.76,0,0,1-1.85.3c-2.61,0-4-1.9-4-4.41s1.34-4.41,3.9-4.41a5.47,5.47,0,0,1,1.9.35l-.08,1.41a3.26,3.26,0,0,0-1.62-.46c-1.31,0-2.42.88-2.42,3.11s1.11,3.11,2.42,3.11A2.66,2.66,0,0,0,82.41,29Z"/><path d="M86.79,21.94c1.78,0,3.41,1.32,3.41,4.41s-1.63,4.41-3.41,4.41-3.42-1.32-3.42-4.41S85,21.94,86.79,21.94Zm0,7.62c1,0,1.79-.85,1.79-3.21s-.8-3.21-1.79-3.21S85,24,85,26.35,85.79,29.56,86.79,29.56Z"/><path d="M91.73,22.06h1.88l2.85,6.74h0V22.06h1.43v8.58H96L93.19,24h0v6.69H91.73Z"/><path d="M99.63,29a3.52,3.52,0,0,0,1.83.53,1.18,1.18,0,0,0,1.3-1.24c0-.62-.36-.89-1.12-1.31l-.8-.44a2.42,2.42,0,0,1-1.4-2.25c0-1.54,1.27-2.33,2.71-2.33a5.84,5.84,0,0,1,1.79.3l-.07,1.32a4.12,4.12,0,0,0-1.62-.37c-.78,0-1.19.42-1.19,1s.44.88.91,1.15l.92.52a2.32,2.32,0,0,1,1.49,2.31c0,1.75-1.24,2.58-2.88,2.58a3.91,3.91,0,0,1-2-.38Z"/><path d="M105.9,22.06h4.51v1.25h-2.94V25.6h2.78v1.25h-2.78v2.54h3.06v1.25H105.9Z"/><path d="M112.12,22.06h1.57v8.58h-1.57Z"/><path d="M115.54,22.06h1.57v7.33h2.83v1.25h-4.4Z"/><path d="M124.35,22.06h2.23c2.69,0,4.11,1.45,4.11,4.29s-1.72,4.29-4.11,4.29h-2.23Zm1.57,7.38h.53c1.77,0,2.57-1.21,2.57-3.09s-.8-3.09-2.57-3.09h-.53Z"/><path d="M132.21,22.06h4.51v1.25h-2.93V25.6h2.77v1.25h-2.77v2.54h3.05v1.25h-4.63Z"/><path d="M138.22,29a3.44,3.44,0,0,0,1.82.53,1.19,1.19,0,0,0,1.3-1.24c0-.62-.36-.89-1.12-1.31l-.8-.44a2.41,2.41,0,0,1,1.3-4.58,5.86,5.86,0,0,1,1.8.3l-.08,1.32a4,4,0,0,0-1.6-.37c-.79,0-1.2.42-1.2,1s.43.88.91,1.15l.92.52A2.33,2.33,0,0,1,143,28.18c0,1.75-1.24,2.58-2.88,2.58a3.89,3.89,0,0,1-2-.38Z"/><path d="M152.12,28.57h-3l-.61,2.07H147l2.88-8.58h1.72l2.77,8.58h-1.63Zm-.33-1.2-1.08-4h0l-1.19,4Z"/><path d="M155.43,22.06h2.68c1.53,0,2.56.68,2.56,2.26a1.93,1.93,0,0,1-1.66,2v0c.32.05.67.2,1,1l1.11,3.27H159.4l-.84-2.79a1.12,1.12,0,0,0-1.2-.9H157v3.69h-1.57Zm2.21,3.74a1.24,1.24,0,0,0,1.41-1.31c0-1-.52-1.23-1.41-1.23H157V25.8Z"/><path d="M163.67,23.31h-1.92V22.06h5.39v1.25h-1.9v7.33h-1.57Z"/><path d="M168.34,29a3.48,3.48,0,0,0,1.82.53,1.18,1.18,0,0,0,1.3-1.24c0-.62-.35-.89-1.12-1.31l-.8-.44a2.42,2.42,0,0,1-1.4-2.25c0-1.54,1.27-2.33,2.71-2.33a5.71,5.71,0,0,1,1.79.3l-.07,1.32a4.06,4.06,0,0,0-1.61-.37c-.79,0-1.19.42-1.19,1s.42.88.9,1.15l.93.52a2.32,2.32,0,0,1,1.48,2.31c0,1.75-1.24,2.58-2.87,2.58a3.93,3.93,0,0,1-2-.38Z"/><path d="M177.87,22.06h2.24c2.68,0,4.11,1.45,4.11,4.29s-1.73,4.29-4.11,4.29h-2.24Zm1.58,7.38H180c1.77,0,2.57-1.21,2.57-3.09s-.8-3.09-2.57-3.09h-.52Z"/><path d="M185.73,22.06h4.52v1.25H187.3V25.6h2.78v1.25H187.3v2.54h3.07v1.25h-4.64Z"/><path d="M195.15,22.06h1.58v7.33h2.83v1.25h-4.41Z"/><path d="M201.49,21.42l-.94,3h-1.18l.64-3Z"/><path d="M205.77,21.94c1.78,0,3.42,1.32,3.42,4.41s-1.64,4.41-3.42,4.41-3.42-1.32-3.42-4.41S204,21.94,205.77,21.94Zm0,7.62c1,0,1.79-.85,1.79-3.21s-.8-3.21-1.79-3.21S204,24,204,26.35,204.77,29.56,205.77,29.56Z"/><path d="M210.71,22.06h1.88l2.85,6.74h0V22.06h1.43v8.58H215L212.17,24h0v6.69h-1.44Z"/><path d="M220,23.31h-1.92V22.06h5.4v1.25h-1.9v7.33H220Z"/><path d="M228.47,28.57h-2.95l-.62,2.07h-1.57l2.88-8.58h1.72l2.76,8.58h-1.62Zm-.33-1.2-1.09-4h0l-1.18,4Z"/><path d="M231.77,22.06h2.69c1.52,0,2.55.68,2.55,2.26a1.93,1.93,0,0,1-1.66,2v0c.32.05.68.2,1,1l1.12,3.27h-1.68l-.84-2.79a1.12,1.12,0,0,0-1.2-.9h-.35v3.69h-1.58ZM234,25.8a1.24,1.24,0,0,0,1.41-1.31c0-1-.52-1.23-1.41-1.23h-.63V25.8Z"/><path d="M238.73,22.06h1.57v8.58h-1.57Z"/><path d="M245.27,21.94c1.78,0,3.42,1.32,3.42,4.41s-1.64,4.41-3.42,4.41-3.42-1.32-3.42-4.41S243.48,21.94,245.27,21.94Zm0,7.62c1,0,1.79-.85,1.79-3.21s-.8-3.21-1.79-3.21-1.8.85-1.8,3.21S244.27,29.56,245.27,29.56Z"/><path d="M80.12,5.62c1.79,0,3.43,1.33,3.43,4.42s-1.64,4.41-3.43,4.41S76.71,13.12,76.71,10,78.34,5.62,80.12,5.62Zm0,7.63c1,0,1.8-.85,1.8-3.21s-.79-3.21-1.8-3.21-1.78.85-1.78,3.21S79.13,13.25,80.12,13.25Z"/><path d="M85.08,5.75H87l2.85,6.74h0V5.75h1.42v8.58H89.37L86.53,7.64h0v6.69H85.08Z"/><path d="M94.37,7H92.46V5.75h5.39V7H96v7.33H94.37Z"/><path d="M102.83,12.27h-3l-.62,2.06H97.69l2.87-8.58h1.72l2.77,8.58h-1.62Zm-.33-1.21-1.09-4h0l-1.18,4Z"/><path d="M106.13,5.75h2.69c1.52,0,2.56.68,2.56,2.26a1.94,1.94,0,0,1-1.67,2v0c.32,0,.68.2,1,1l1.12,3.27h-1.67l-.86-2.79a1.1,1.1,0,0,0-1.18-.9h-.36v3.69h-1.58Zm2.22,3.74a1.24,1.24,0,0,0,1.4-1.31c0-1-.51-1.23-1.4-1.23h-.64V9.49Z"/><path d="M113.09,5.75h1.58v8.58h-1.58Z"/><path d="M119.63,5.62c1.78,0,3.42,1.33,3.42,4.42s-1.64,4.41-3.42,4.41-3.42-1.33-3.42-4.41S117.84,5.62,119.63,5.62Zm0,7.63c1,0,1.79-.85,1.79-3.21s-.8-3.21-1.79-3.21-1.8.85-1.8,3.21S118.63,13.25,119.63,13.25Z"/><path d="M132.17,12.27h-3l-.61,2.06H127l2.88-8.58h1.72l2.76,8.58h-1.62Zm-.33-1.21-1.08-4h0l-1.18,4Z"/><path d="M135.48,5.75h2.68c1.52,0,2.56.68,2.56,2.26a1.94,1.94,0,0,1-1.66,2v0c.32,0,.67.2.95,1l1.11,3.27h-1.67l-.85-2.79a1.11,1.11,0,0,0-1.19-.9h-.36v3.69h-1.57Zm2.21,3.74a1.24,1.24,0,0,0,1.4-1.31c0-1-.51-1.23-1.4-1.23h-.64V9.49Z"/><path d="M143.71,7h-1.92V5.75h5.41V7h-1.91v7.33h-1.58Z"/><path d="M148.38,12.67a3.55,3.55,0,0,0,1.83.53,1.18,1.18,0,0,0,1.3-1.24c0-.62-.36-.89-1.12-1.31l-.8-.44a2.42,2.42,0,0,1,1.31-4.59,5.74,5.74,0,0,1,1.79.31l-.08,1.32A4,4,0,0,0,151,6.88c-.78,0-1.19.42-1.19,1s.43.88.91,1.15l.92.52a2.33,2.33,0,0,1,1.49,2.31c0,1.75-1.24,2.58-2.87,2.58a3.9,3.9,0,0,1-2-.38Z"/><path d="M163.45,14.15a4.81,4.81,0,0,1-1.86.3c-2.6,0-3.94-1.9-3.94-4.41s1.34-4.42,3.9-4.42a5.47,5.47,0,0,1,1.9.36l-.08,1.42a3.19,3.19,0,0,0-1.63-.47c-1.3,0-2.42.88-2.42,3.11s1.12,3.11,2.42,3.11a2.76,2.76,0,0,0,1.63-.44Z"/><path d="M167.74,5.62c1.78,0,3.42,1.33,3.42,4.42s-1.64,4.41-3.42,4.41-3.42-1.33-3.42-4.41S166,5.62,167.74,5.62Zm0,7.63c1,0,1.8-.85,1.8-3.21s-.81-3.21-1.8-3.21-1.8.85-1.8,3.21S166.74,13.25,167.74,13.25Z"/><path d="M174.19,5.75v5.56c0,1.42.43,1.89,1.35,1.89s1.34-.47,1.34-1.89V5.75h1.58v5.56c0,2.26-1.31,3.14-2.92,3.14s-2.92-.88-2.92-3.14V5.75Z"/><path d="M180.29,5.75h1.87L185,12.49h0V5.75h1.43v8.58h-1.89l-2.83-6.69h0v6.69h-1.42Z"/><path d="M193.76,14.15a4.91,4.91,0,0,1-1.87.3c-2.6,0-3.94-1.9-3.94-4.41s1.34-4.42,3.9-4.42a5.6,5.6,0,0,1,1.91.36l-.09,1.42a3.18,3.18,0,0,0-1.62-.47c-1.31,0-2.43.88-2.43,3.11s1.12,3.11,2.43,3.11a2.73,2.73,0,0,0,1.62-.44Z"/><path d="M195.2,5.75h1.58v8.58H195.2Z"/><path d="M198.63,5.75h1.57v7.33H203v1.25h-4.4Z"/><path d="M248.69,38H77v-1.2H248.69Zm-171.06-.6h0Z"/><path d="M77.42,44.85a2.49,2.49,0,0,1,1.3-.38,1.7,1.7,0,0,1,1.22.44,1.37,1.37,0,0,1,.4,1.12v2.4c0,.27,0,.54,0,.7h-.68l0-.62h0a1.4,1.4,0,0,1-1.29.68A1.22,1.22,0,0,1,77,47.87c0-.89.58-1.55,2.16-1.55h.44v-.21a1.17,1.17,0,0,0-.17-.74,1,1,0,0,0-.77-.28,1.61,1.61,0,0,0-1.18.47Zm2.2,2a4.19,4.19,0,0,0-.53,0c-.89,0-1.32.42-1.32,1a.72.72,0,0,0,.78.81,1.1,1.1,0,0,0,1.07-1.17Z"/><path d="M81.92,45.53c0-.34,0-.67,0-1h.73l0,.68h0a1.18,1.18,0,0,1,1.16-.75c.8,0,1.34.46,1.34,1.47v3.19h-.75v-3c0-.73-.27-1.05-.76-1.05s-1,.42-1,1.24v2.77h-.76Z"/><path d="M91.69,42.78c1.39,0,2.28,1.2,2.28,3.14,0,2.17-.87,3.27-2.35,3.27s-2.29-1.2-2.29-3.14C89.33,43.88,90.2,42.78,91.69,42.78Zm-.07,5.76c.82,0,1.53-.68,1.53-2.62,0-1.27-.4-2.49-1.46-2.49-.83,0-1.53.68-1.53,2.62C90.16,47.32,90.55,48.54,91.62,48.54Z"/><path d="M95.47,45.53c0-.34,0-.67,0-1h.73l0,.68h0a1.2,1.2,0,0,1,1.17-.75c.8,0,1.34.46,1.34,1.47v3.19H98v-3c0-.73-.27-1.05-.76-1.05s-1,.42-1,1.24v2.77h-.75Z"/><path d="M102.34,49.07a1.91,1.91,0,0,1-.64.12c-.69,0-1.06-.28-1.06-1.09v-3h-.73v-.61h.73V43.6l.76-.22v1.16h.94v.61h-.94v2.71c0,.52.13.72.48.72a1.12,1.12,0,0,0,.46-.12Z"/><path d="M103.67,44.85a2.49,2.49,0,0,1,1.3-.38,1.73,1.73,0,0,1,1.23.44,1.41,1.41,0,0,1,.39,1.12v2.4a6.16,6.16,0,0,0,0,.7h-.69l0-.62h0a1.38,1.38,0,0,1-1.29.68,1.22,1.22,0,0,1-1.32-1.32c0-.89.58-1.55,2.16-1.55h.44v-.21a1.17,1.17,0,0,0-.17-.74,1,1,0,0,0-.77-.28,1.6,1.6,0,0,0-1.17.47Zm2.2,2a4,4,0,0,0-.53,0c-.89,0-1.31.42-1.31,1a.72.72,0,0,0,.77.81,1.09,1.09,0,0,0,1.07-1.17Z"/><path d="M108.17,45.53c0-.34,0-.67,0-1h.73l0,.72h0a1.24,1.24,0,0,1,1.31-.79v.75a1.36,1.36,0,0,0-.29,0c-.59,0-1,.51-1,1.51v2.43h-.76Z"/><path d="M112.21,42.65v.9h-.82v-.9Zm-.79,1.89h.76v4.59h-.76Z"/><path d="M115.48,44.47c1.22,0,1.85.92,1.85,2.36s-.63,2.36-1.85,2.36-1.84-.92-1.84-2.36S114.27,44.47,115.48,44.47Zm0,4.11c.72,0,1.06-.6,1.06-1.75s-.34-1.74-1.06-1.74-1,.59-1,1.74S114.76,48.58,115.48,48.58Z"/><path d="M124.69,49.33a1.76,1.76,0,0,1-2,1.8,4.5,4.5,0,0,1-1.34-.28l0-.77a2.53,2.53,0,0,0,1.26.4A1.17,1.17,0,0,0,124,49.14v-.72h0a1.34,1.34,0,0,1-1.2.77c-1,0-1.59-.77-1.59-2.36s.64-2.36,1.67-2.36a1.32,1.32,0,0,1,1.12.73h0l0-.66h.73c0,.27,0,.55,0,.83Zm-1.76-.75c.69,0,1-.6,1-1.75s-.31-1.74-1-1.74-1,.59-1,1.74S122.23,48.58,122.93,48.58Z"/><path d="M127.85,44.47c1.21,0,1.84.92,1.84,2.36s-.63,2.36-1.84,2.36S126,48.27,126,46.83,126.63,44.47,127.85,44.47Zm0,4.11c.72,0,1.05-.6,1.05-1.75s-.33-1.74-1.05-1.74-1,.59-1,1.74S127.13,48.58,127.85,48.58Z"/><path d="M130.61,44.54h.83l1,3.83h0l1-3.83h.79l-1.37,4.59H132Z"/><path d="M136,47.06c0,1.06.42,1.56,1.26,1.56a2,2,0,0,0,1.05-.38l0,.68a3.08,3.08,0,0,1-1.28.27c-1.22,0-1.85-.92-1.85-2.36s.63-2.36,1.77-2.36,1.62.83,1.62,2.18v.41Zm1.84-.58c0-.95-.3-1.43-.9-1.43s-.92.36-.94,1.43Z"/><path d="M139.93,45.53c0-.34,0-.67,0-1h.73l0,.72h0a1.24,1.24,0,0,1,1.31-.79v.75a1.36,1.36,0,0,0-.29,0c-.58,0-1,.51-1,1.51v2.43h-.76Z"/><path d="M143.11,45.53c0-.34,0-.67,0-1h.72l0,.68h0a1.18,1.18,0,0,1,1.16-.75c.8,0,1.34.46,1.34,1.47v3.19h-.75v-3c0-.73-.27-1.05-.76-1.05s-1,.42-1,1.24v2.77h-.76Z"/><path d="M148,45.53c0-.34,0-.67,0-1h.73l0,.68h0a1.21,1.21,0,0,1,2.22,0,1.2,1.2,0,0,1,1.11-.72c.79,0,1.33.46,1.33,1.47v3.19h-.75V46c0-.59-.25-.86-.7-.86s-.87.34-.87,1.17v2.84h-.75V46c0-.59-.26-.86-.71-.86s-.86.34-.86,1.17v2.84H148Z"/><path d="M155.54,47.06c0,1.06.41,1.56,1.25,1.56a1.93,1.93,0,0,0,1.05-.38l0,.68a3.13,3.13,0,0,1-1.29.27c-1.21,0-1.84-.92-1.84-2.36s.63-2.36,1.77-2.36,1.61.83,1.61,2.18v.41Zm1.84-.58c0-.95-.3-1.43-.9-1.43s-.92.36-.94,1.43Z"/><path d="M159.48,45.53c0-.34,0-.67,0-1h.72l0,.68h0a1.18,1.18,0,0,1,1.16-.75c.8,0,1.34.46,1.34,1.47v3.19H162v-3c0-.73-.27-1.05-.76-1.05s-1,.42-1,1.24v2.77h-.76Z"/><path d="M166.36,49.07a1.91,1.91,0,0,1-.64.12c-.69,0-1.06-.28-1.06-1.09v-3h-.73v-.61h.73V43.6l.75-.22v1.16h1v.61h-1v2.71c0,.52.14.72.48.72a1.16,1.16,0,0,0,.47-.12Z"/><path d="M170.36,44.85a2.49,2.49,0,0,1,1.3-.38,1.68,1.68,0,0,1,1.22.44,1.37,1.37,0,0,1,.4,1.12v2.4a6.16,6.16,0,0,0,0,.7h-.69l0-.62h0a1.4,1.4,0,0,1-1.29.68A1.22,1.22,0,0,1,170,47.87c0-.89.58-1.55,2.16-1.55h.44v-.21a1.17,1.17,0,0,0-.17-.74,1,1,0,0,0-.77-.28,1.64,1.64,0,0,0-1.18.47Zm2.2,2a4.11,4.11,0,0,0-.53,0c-.89,0-1.32.42-1.32,1a.72.72,0,0,0,.78.81,1.09,1.09,0,0,0,1.07-1.17Z"/><path d="M178.17,49.33a1.77,1.77,0,0,1-2,1.8,4.64,4.64,0,0,1-1.34-.28l0-.77a2.5,2.5,0,0,0,1.26.4,1.17,1.17,0,0,0,1.29-1.34v-.72h0a1.34,1.34,0,0,1-1.21.77c-.94,0-1.58-.77-1.58-2.36s.64-2.36,1.66-2.36a1.34,1.34,0,0,1,1.13.73h0l0-.66h.73c0,.27,0,.55,0,.83Zm-1.77-.75c.7,0,1-.6,1-1.75s-.31-1.74-1-1.74-1,.59-1,1.74S175.71,48.58,176.4,48.58Z"/><path d="M180.27,47.06c0,1.06.42,1.56,1.25,1.56a2,2,0,0,0,1.06-.38l0,.68a3.12,3.12,0,0,1-1.28.27c-1.22,0-1.85-.92-1.85-2.36s.63-2.36,1.77-2.36,1.61.83,1.61,2.18v.41Zm1.84-.58c0-.95-.3-1.43-.9-1.43s-.92.36-.94,1.43Z"/><path d="M184.21,45.53c0-.34,0-.67,0-1h.73l0,.68h0a1.18,1.18,0,0,1,1.16-.75c.8,0,1.34.46,1.34,1.47v3.19h-.75v-3c0-.73-.27-1.05-.76-1.05s-1,.42-1,1.24v2.77h-.76Z"/><path d="M191.77,45.34a1.69,1.69,0,0,0-.88-.22c-.74,0-1.26.51-1.26,1.76,0,1.06.51,1.66,1.24,1.66a2.06,2.06,0,0,0,.93-.24l0,.69a2.73,2.73,0,0,1-1,.2,2,2,0,0,1-2-2.31c0-1.49.77-2.41,2-2.41a2.34,2.34,0,0,1,.91.18Z"/><path d="M194.52,50.06c-.23.79-.55,1.07-1.13,1.07a2,2,0,0,1-.51-.06l0-.68a1,1,0,0,0,.41.09c.22,0,.38-.1.51-.58l.17-.7-1.44-4.66h.79l1,3.74h0l1-3.74h.75Z"/><path d="M80.48,58.57c0,.34,0,.67,0,1h-.73l0-.68h0a1.18,1.18,0,0,1-1.16.75c-.8,0-1.34-.46-1.34-1.47V55H78v3c0,.73.27,1,.75,1s1-.42,1-1.24V55h.75Z"/><path d="M82.09,56c0-.33,0-.66,0-1h.73l0,.69h0A1.17,1.17,0,0,1,84,54.91c.8,0,1.34.46,1.34,1.47v3.18h-.75v-3c0-.73-.27-1-.76-1s-1,.41-1,1.24v2.76h-.76Z"/><path d="M91.24,54.91c1.21,0,1.84.92,1.84,2.36s-.63,2.36-1.84,2.36-1.85-.92-1.85-2.36S90,54.91,91.24,54.91Zm0,4.1c.72,0,1.05-.59,1.05-1.74s-.33-1.75-1.05-1.75-1.06.6-1.06,1.75S90.52,59,91.24,59Z"/><path d="M94.47,56c0-.33,0-.66,0-1h.73l0,.72h0a1.22,1.22,0,0,1,1.3-.78v.75a1.36,1.36,0,0,0-.29,0c-.58,0-1,.5-1,1.5v2.43h-.75Z"/><path d="M101,59.76a1.77,1.77,0,0,1-2,1.8,4.33,4.33,0,0,1-1.35-.28l0-.76a2.59,2.59,0,0,0,1.26.39,1.17,1.17,0,0,0,1.29-1.34v-.72h0a1.35,1.35,0,0,1-1.21.78c-.94,0-1.58-.78-1.58-2.36s.64-2.36,1.66-2.36a1.34,1.34,0,0,1,1.13.73h0l0-.67H101c0,.27,0,.56,0,.84ZM99.18,59c.7,0,1-.59,1-1.74s-.31-1.75-1-1.75-1,.6-1,1.75S98.49,59,99.18,59Z"/><path d="M102.67,55.29a2.35,2.35,0,0,1,1.29-.38,1.78,1.78,0,0,1,1.23.43,1.45,1.45,0,0,1,.39,1.13v2.39a6.16,6.16,0,0,0,0,.7h-.69l0-.62h0a1.39,1.39,0,0,1-1.29.69,1.23,1.23,0,0,1-1.32-1.33c0-.89.59-1.55,2.16-1.55h.44v-.2a1.09,1.09,0,0,0-.17-.74.91.91,0,0,0-.76-.29,1.62,1.62,0,0,0-1.18.48Zm2.19,2a4,4,0,0,0-.53,0c-.89,0-1.31.43-1.31,1a.71.71,0,0,0,.77.8,1.08,1.08,0,0,0,1.07-1.16Z"/><path d="M107.17,56c0-.33,0-.66,0-1h.73l0,.69h0a1.19,1.19,0,0,1,1.17-.75c.8,0,1.34.46,1.34,1.47v3.18h-.76v-3c0-.73-.27-1-.76-1s-1,.41-1,1.24v2.76h-.75Z"/><path d="M112.88,53.08V54h-.83v-.9ZM112.09,55h.75v4.59h-.75Z"/><path d="M114.33,58.67a2.05,2.05,0,0,0,1.08.34c.58,0,.87-.29.87-.64s-.16-.54-.58-.72l-.51-.23c-.65-.3-.9-.59-.9-1.18a1.36,1.36,0,0,1,1.48-1.33,2.73,2.73,0,0,1,1,.16l0,.65a2.21,2.21,0,0,0-.9-.2c-.5,0-.76.27-.76.63s.27.58.77.78l.27.1A1.26,1.26,0,0,1,117,58.2a1.32,1.32,0,0,1-1.47,1.43,2.81,2.81,0,0,1-1.25-.27Z"/><path d="M118.37,56c0-.33,0-.66,0-1h.73l0,.69h0a1.2,1.2,0,0,1,2.21,0,1.22,1.22,0,0,1,1.12-.72c.79,0,1.33.46,1.33,1.47v3.18H123V56.41c0-.58-.26-.85-.71-.85s-.86.34-.86,1.17v2.83h-.76V56.41c0-.58-.25-.85-.7-.85s-.86.34-.86,1.17v2.83h-.76Z"/><path d="M126,57.49c0,1.07.41,1.56,1.25,1.56a1.93,1.93,0,0,0,1-.38l0,.69a3.13,3.13,0,0,1-1.29.27c-1.21,0-1.84-.92-1.84-2.36s.63-2.36,1.77-2.36,1.61.83,1.61,2.18v.4Zm1.84-.57c0-1-.3-1.43-.9-1.43s-.92.36-.94,1.43Z"/><path d="M135.87,58.72c0,.28,0,.56,0,.84h-.73l0-.67h0a1.3,1.3,0,0,1-1.21.74c-.94,0-1.58-.78-1.58-2.36s.64-2.36,1.58-2.36a1.26,1.26,0,0,1,1.17.69h0V52.81h.76Zm-1.77-3.2c-.69,0-1,.6-1,1.75s.32,1.74,1,1.74,1-.59,1-1.74S134.8,55.52,134.1,55.52Z"/><path d="M140.65,58.57c0,.34,0,.67,0,1H140l0-.68h0a1.18,1.18,0,0,1-1.16.75c-.8,0-1.34-.46-1.34-1.47V55h.75v3c0,.73.27,1,.76,1s1-.42,1-1.24V55h.76Z"/><path d="M148.23,59.76a1.76,1.76,0,0,1-2,1.8,4.21,4.21,0,0,1-1.34-.28l0-.76a2.63,2.63,0,0,0,1.27.39,1.17,1.17,0,0,0,1.28-1.34v-.72h0a1.37,1.37,0,0,1-1.21.78c-.95,0-1.59-.78-1.59-2.36s.64-2.36,1.67-2.36a1.35,1.35,0,0,1,1.13.73h0l0-.67h.73c0,.27,0,.56,0,.84ZM146.47,59c.69,0,1-.59,1-1.74s-.32-1.75-1-1.75-1,.6-1,1.75S145.78,59,146.47,59Z"/><path d="M151.39,54.91c1.22,0,1.85.92,1.85,2.36s-.63,2.36-1.85,2.36-1.84-.92-1.84-2.36S150.18,54.91,151.39,54.91Zm0,4.1c.72,0,1.05-.59,1.05-1.74s-.33-1.75-1.05-1.75-1,.6-1,1.75S150.67,59,151.39,59Z"/><path d="M157.86,58.57c0,.34,0,.67,0,1h-.73l0-.68h0a1.17,1.17,0,0,1-1.16.75c-.8,0-1.34-.46-1.34-1.47V55h.76v3c0,.73.27,1,.75,1s1-.42,1-1.24V55h.75Z"/><path d="M159,55h.83l1,3.84h0l1-3.84h.79l-1.38,4.59h-.9Z"/><path d="M164.39,57.49c0,1.07.41,1.56,1.25,1.56a1.93,1.93,0,0,0,1.05-.38l0,.69a3.13,3.13,0,0,1-1.29.27c-1.22,0-1.85-.92-1.85-2.36s.63-2.36,1.78-2.36,1.61.83,1.61,2.18v.4Zm1.83-.57c0-1-.29-1.43-.9-1.43s-.91.36-.93,1.43Z"/><path d="M168.33,56c0-.33,0-.66,0-1H169l0,.72h0a1.22,1.22,0,0,1,1.3-.78v.75a1.36,1.36,0,0,0-.29,0c-.58,0-1,.5-1,1.5v2.43h-.76Z"/><path d="M171.51,56c0-.33,0-.66,0-1h.73l0,.69h0a1.19,1.19,0,0,1,1.17-.75c.8,0,1.34.46,1.34,1.47v3.18H174v-3c0-.73-.27-1-.76-1s-1,.41-1,1.24v2.76h-.75Z"/><path d="M176.92,57.49c0,1.07.42,1.56,1.26,1.56a2,2,0,0,0,1-.38l0,.69a3.08,3.08,0,0,1-1.28.27c-1.22,0-1.85-.92-1.85-2.36s.63-2.36,1.78-2.36,1.61.83,1.61,2.18v.4Zm1.84-.57c0-1-.3-1.43-.9-1.43s-.92.36-.94,1.43Z"/><path d="M180.87,56c0-.33,0-.66,0-1h.73l0,.69h0a1.21,1.21,0,0,1,2.22,0,1.2,1.2,0,0,1,1.11-.72c.8,0,1.34.46,1.34,1.47v3.18h-.76V56.41c0-.58-.25-.85-.7-.85s-.87.34-.87,1.17v2.83h-.75V56.41c0-.58-.25-.85-.7-.85s-.87.34-.87,1.17v2.83h-.75Z"/><path d="M188.44,57.49c0,1.07.42,1.56,1.26,1.56a2,2,0,0,0,1.05-.38l0,.69a3.08,3.08,0,0,1-1.28.27c-1.22,0-1.85-.92-1.85-2.36s.63-2.36,1.77-2.36,1.62.83,1.62,2.18v.4Zm1.84-.57c0-1-.3-1.43-.9-1.43s-.92.36-.94,1.43Z"/><path d="M192.38,56c0-.33,0-.66,0-1h.73l0,.69h0a1.18,1.18,0,0,1,1.16-.75c.81,0,1.35.46,1.35,1.47v3.18h-.76v-3c0-.73-.27-1-.76-1s-1,.41-1,1.24v2.76h-.76Z"/><path d="M199.26,59.51a2.2,2.2,0,0,1-.64.12c-.69,0-1.06-.28-1.06-1.09v-3h-.73V55h.73V54l.76-.23V55h.94v.61h-.94v2.71c0,.53.13.72.47.72a1.12,1.12,0,0,0,.47-.11Z"/><path d="M206.39,58.72c0,.28,0,.56,0,.84h-.73l0-.67h0a1.3,1.3,0,0,1-1.2.74c-.95,0-1.59-.78-1.59-2.36s.64-2.36,1.59-2.36a1.28,1.28,0,0,1,1.17.69h0V52.81h.76Zm-1.76-3.2c-.7,0-1,.6-1,1.75s.31,1.74,1,1.74,1-.59,1-1.74S205.32,55.52,204.63,55.52Z"/><path d="M208.5,57.49c0,1.07.41,1.56,1.25,1.56a2,2,0,0,0,1.05-.38l0,.69a3.13,3.13,0,0,1-1.29.27c-1.22,0-1.85-.92-1.85-2.36s.63-2.36,1.78-2.36,1.61.83,1.61,2.18v.4Zm1.83-.57c0-1-.29-1.43-.9-1.43s-.92.36-.93,1.43Z"/><path d="M215.18,52.81h.76v6.75h-.76Z"/><path d="M218,52.81h.83l-.59,2.09h-.69Z"/><path d="M222.54,53.22c1.39,0,2.28,1.19,2.28,3.14,0,2.17-.87,3.27-2.36,3.27s-2.28-1.2-2.28-3.15C220.18,54.31,221.05,53.22,222.54,53.22ZM222.46,59c.83,0,1.53-.69,1.53-2.62,0-1.27-.39-2.49-1.45-2.49-.83,0-1.54.68-1.54,2.61C221,57.75,221.4,59,222.46,59Z"/><path d="M226.31,56c0-.33,0-.66,0-1H227l0,.69h0a1.18,1.18,0,0,1,1.16-.75c.81,0,1.35.46,1.35,1.47v3.18h-.76v-3c0-.73-.27-1-.76-1s-1,.41-1,1.24v2.76h-.76Z"/><path d="M233.19,59.51a2.2,2.2,0,0,1-.64.12c-.69,0-1.06-.28-1.06-1.09v-3h-.73V55h.73V54l.76-.23V55h.94v.61h-.94v2.71c0,.53.13.72.47.72a1.12,1.12,0,0,0,.47-.11Z"/><path d="M234.52,55.29a2.4,2.4,0,0,1,1.3-.38,1.75,1.75,0,0,1,1.22.43,1.41,1.41,0,0,1,.4,1.13v2.39c0,.27,0,.54,0,.7h-.68l0-.62h0a1.4,1.4,0,0,1-1.29.69,1.22,1.22,0,0,1-1.32-1.33c0-.89.58-1.55,2.16-1.55h.44v-.2a1.15,1.15,0,0,0-.17-.74.94.94,0,0,0-.77-.29,1.62,1.62,0,0,0-1.18.48Zm2.2,2a4.19,4.19,0,0,0-.53,0c-.89,0-1.32.43-1.32,1a.71.71,0,0,0,.78.8,1.09,1.09,0,0,0,1.07-1.16Z"/><path d="M239,56c0-.33,0-.66,0-1h.73l0,.72h0a1.23,1.23,0,0,1,1.31-.78v.75a1.36,1.36,0,0,0-.29,0c-.59,0-1,.5-1,1.5v2.43H239Z"/><path d="M243.06,53.08V54h-.82v-.9ZM242.27,55H243v4.59h-.76Z"/><path d="M246.33,54.91c1.22,0,1.85.92,1.85,2.36s-.63,2.36-1.85,2.36-1.84-.92-1.84-2.36S245.12,54.91,246.33,54.91Zm0,4.1c.72,0,1-.59,1-1.74s-.33-1.75-1-1.75-1.05.6-1.05,1.75S245.61,59,246.33,59Z"/></g></g></svg>