<svg xmlns="http://www.w3.org/2000/svg" viewBox="0 0 169.71 149.48"><title>they_should_be_flowers_logo</title><g id="Layer_2" data-name="Layer 2"><g id="Layer_1-2" data-name="Layer 1"><path d="M7.18,26.48a4.72,4.72,0,0,1,.49,0h.44A3.61,3.61,0,0,0,10,26.16a2.09,2.09,0,0,0,.83-1.35A16.07,16.07,0,0,0,11,22.34c0-1.29,0-3.46,0-6.53V6.31l-1.16,0H8.48c-2.19,0-3.64.29-4.36.88A5.61,5.61,0,0,0,2.6,10.59L0,10C.28,8.85.53,7.63.73,6.34s.37-2.64.49-4.06q3.08.2,5.94.28c1.92.06,3.84.09,5.77.09q6.51,0,10.32-.09c2.54-.06,4.35-.15,5.45-.28,0,1.33.05,2.64.15,4s.25,2.6.45,3.86l-2.47.43A6.16,6.16,0,0,0,25.39,7.1c-.64-.58-1.9-.87-3.79-.87l-1.18,0-1.72.09q0,3.89-.05,6.07c0,1.45,0,2.8,0,4.06v2.28c0,2.19,0,3.72.07,4.6A7.41,7.41,0,0,0,19,25.18a1.89,1.89,0,0,0,.88,1,4.1,4.1,0,0,0,1.76.3H22a3.64,3.64,0,0,1,.43,0l0,2.28c-1.6-.12-3.07-.22-4.4-.28s-2.5-.09-3.52-.09c-.75,0-1.74,0-3,.09s-2.66.16-4.34.28Z"/><path d="M39.61,0c-.1,2.35-.18,4.56-.24,6.61s-.09,4-.1,5.77a17.79,17.79,0,0,1,3.57-2.11A8.26,8.26,0,0,1,46,9.57a5.74,5.74,0,0,1,4.64,1.85,8.31,8.31,0,0,1,1.56,5.48c0,.5,0,1.55-.08,3.17S52,23,52,24.16a3.16,3.16,0,0,0,.48,2.05,2.46,2.46,0,0,0,1.84.53h.33v2c-1.84-.16-3.17-.26-4-.3s-1.47-.07-2-.07c-.71,0-2.45.11-5.21.34l-.19,0v-2h.19A1.85,1.85,0,0,0,45.26,26c.29-.51.43-2,.43-4.41v-2c0-2.29-.22-3.81-.68-4.57a2.48,2.48,0,0,0-2.32-1.13,4.84,4.84,0,0,0-1.4.24,13.31,13.31,0,0,0-1.91.78l-.07,1.34c0,.55,0,1.28-.06,2.19s0,1.88,0,2.95v2.22a4.88,4.88,0,0,0,.44,2.6,2.05,2.05,0,0,0,1.68.56h.13l0,2c-1.13-.12-2.18-.22-3.17-.28s-1.88-.09-2.67-.09-1.56,0-2.53.09-2,.16-3.17.28v-2h.33a3.52,3.52,0,0,0,1.37-.23,1.55,1.55,0,0,0,.77-.72c.29-.65.46-4.06.48-10.22,0-.93,0-1.64,0-2.12l0-4.75V8a9.47,9.47,0,0,0-.41-3.64,1.66,1.66,0,0,0-1.58-.7H30.5l-.51,0v-2c1.61-.15,3.22-.36,4.82-.64S38,.41,39.61,0Z"/><path d="M75.37,19.69H67c-.77,0-1.49,0-2.17,0s-1.31.09-1.87.17a5.73,5.73,0,0,0,1.68,3.84,5.67,5.67,0,0,0,4,1.32,9.51,9.51,0,0,0,2.53-.4,20.65,20.65,0,0,0,3.17-1.27l1.06,2.32a21.12,21.12,0,0,1-5,2.84,13.79,13.79,0,0,1-4.86.89,9.56,9.56,0,0,1-7-2.66,9.29,9.29,0,0,1-2.68-6.92,10.1,10.1,0,0,1,3-7.48,10.25,10.25,0,0,1,7.5-3A8.45,8.45,0,0,1,73,12.1a10.43,10.43,0,0,1,2.42,7.27Zm-6.09-2.94a5.84,5.84,0,0,0-1-3.17,2.7,2.7,0,0,0-4.46.1,6,6,0,0,0-.9,3.37c1.52,0,2.79,0,3.81-.07S68.6,16.85,69.28,16.75Z"/><path d="M77,10.09c1.77.15,3.07.25,3.89.3s1.51.07,2.07.07c.83,0,1.76,0,2.81-.1s2.15-.16,3.31-.27v2.14h-.41a2.33,2.33,0,0,0-1.35.29,1.06,1.06,0,0,0-.41.93A33.35,33.35,0,0,0,88.46,18c.68,1.81,1.23,3.28,1.65,4.43,1.52-3.69,2.48-6.06,2.86-7.09a8.08,8.08,0,0,0,.57-2,1.05,1.05,0,0,0-.34-.89,2,2,0,0,0-1.14-.26h-.29l-.21,0V10.09q1.71.23,2.67.3c.64,0,1.21.07,1.71.07s1.49-.07,2.87-.22l1.6-.15v2.14l-.3,0-.26,0q-1.57,0-4.08,5.57c-.63,1.41-1.14,2.53-1.54,3.36L91.6,26.66q-4,8.42-4.68,9.5a6.71,6.71,0,0,1-1.75,2,3.4,3.4,0,0,1-2,.62,3.09,3.09,0,0,1-2.2-.82,2.74,2.74,0,0,1-.88-2.07,2.08,2.08,0,0,1,.68-1.66,2.87,2.87,0,0,1,1.94-.59q1.75,0,3.3-3.21l.31-.63q-3.49-8.25-6.56-15.36l-.32-.74a2.82,2.82,0,0,0-.79-1.18,1.88,1.88,0,0,0-1.16-.31h-.31l-.21,0Z"/><path d="M22.88,43.23V44.4c0,1.06,0,2.1.13,3.11s.2,2,.35,3l-2.65.41a5.89,5.89,0,0,0-1.9-4.19,7.07,7.07,0,0,0-4.71-1.43,6.1,6.1,0,0,0-3.53.91,2.79,2.79,0,0,0-1.33,2.41q0,2.11,5.66,3.29c.26,0,.46.09.61.12,3.21.67,5.5,1.62,6.89,2.84a6.39,6.39,0,0,1,2.07,5,8.39,8.39,0,0,1-3.55,7,15.14,15.14,0,0,1-9.36,2.69,24.24,24.24,0,0,1-4.68-.43,18.17,18.17,0,0,1-4.1-1.28c0-.17,0-.35,0-.52s0-.44,0-.82A31.48,31.48,0,0,0,2.63,63c-.12-1.18-.3-2.35-.53-3.51L5,59a9,9,0,0,0,2.43,5.17,7.06,7.06,0,0,0,5,1.66A6.9,6.9,0,0,0,16.12,65a2.79,2.79,0,0,0,1.4-2.43q0-2.31-5-3.51L11,58.65c-3.2-.81-5.44-1.8-6.7-3a6.38,6.38,0,0,1-1.89-4.88,8,8,0,0,1,3.38-6.61,14.09,14.09,0,0,1,8.76-2.57A23.82,23.82,0,0,1,19,42,17,17,0,0,1,22.88,43.23Z"/><path d="M36.56,40c-.1,2.35-.17,4.56-.23,6.61s-.09,4-.1,5.77a17.26,17.26,0,0,1,3.57-2.11,8.26,8.26,0,0,1,3.15-.7,5.72,5.72,0,0,1,4.63,1.85,8.31,8.31,0,0,1,1.56,5.48c0,.5,0,1.55-.07,3.17S49,63,49,64.16a3.15,3.15,0,0,0,.49,2,2.45,2.45,0,0,0,1.83.53h.34v2c-1.85-.16-3.17-.26-4-.3s-1.47-.07-2-.07c-.72,0-2.45.11-5.21.34l-.19,0v-2h.19A1.83,1.83,0,0,0,42.21,66c.29-.51.44-2,.44-4.41v-2c0-2.29-.23-3.81-.68-4.57a2.5,2.5,0,0,0-2.33-1.13,4.89,4.89,0,0,0-1.4.24,13.73,13.73,0,0,0-1.9.78l-.07,1.34q0,.83-.06,2.19c0,.9,0,1.88,0,3v2.22a4.88,4.88,0,0,0,.44,2.6,2.05,2.05,0,0,0,1.68.56h.13l0,2c-1.13-.12-2.19-.22-3.17-.28s-1.88-.09-2.68-.09-1.56,0-2.52.09-2,.16-3.17.28v-2h.33a3.56,3.56,0,0,0,1.37-.23,1.53,1.53,0,0,0,.76-.72q.45-1,.49-10.22c0-.93,0-1.64,0-2.12l0-4.75V48a9.26,9.26,0,0,0-.41-3.64,1.65,1.65,0,0,0-1.57-.7h-.44l-.51,0v-2c1.61-.15,3.21-.36,4.82-.64S35,40.41,36.56,40Z"/><path d="M64.05,49.43a11.8,11.8,0,0,1,8.18,2.79,9.87,9.87,0,0,1-.06,14.42A11.85,11.85,0,0,1,64,69.45a11.9,11.9,0,0,1-8.08-2.7,8.83,8.83,0,0,1-3.1-7A9.66,9.66,0,0,1,56,52.33,11.42,11.42,0,0,1,64.05,49.43Zm-.2,3.26a3,3,0,0,0-2.71,1.46,8,8,0,0,0-.93,4.27,12.76,12.76,0,0,0,1,5.71,3.22,3.22,0,0,0,3,1.94A3.05,3.05,0,0,0,67,64.58a8.64,8.64,0,0,0,.93-4.49,11.75,11.75,0,0,0-1-5.52A3.28,3.28,0,0,0,63.85,52.69Z"/><path d="M85.73,49.69q-.15,3.47-.22,6c-.05,1.7-.07,3.19-.07,4.46A7.75,7.75,0,0,0,86.09,64,2.36,2.36,0,0,0,88.28,65a5,5,0,0,0,1.53-.27,11.84,11.84,0,0,0,1.94-.88q.09-3.32.12-5.07c0-1.16,0-2.24,0-3.24a3.35,3.35,0,0,0-.42-2,2.09,2.09,0,0,0-1.64-.52h-.5l-.35,0-.09-2c1.62-.16,3.23-.36,4.84-.59s3.2-.49,4.77-.78c-.08,2.85-.13,5.3-.17,7.33s0,3.64,0,4.82v.72a6.78,6.78,0,0,0,.31,2.68,1.22,1.22,0,0,0,1.17.55,2.28,2.28,0,0,0,.47-.05l.7-.13.2,2.09-9.46,1.67.11-2.86a28.44,28.44,0,0,1-4.13,2.36,6.91,6.91,0,0,1-2.68.61,6.48,6.48,0,0,1-2.86-.63A5.36,5.36,0,0,1,80,67.09a6,6,0,0,1-.86-1.9,10.44,10.44,0,0,1-.27-2.59c0-.17,0-.44,0-.8s0-.63,0-.83L79,57.74c0-.89,0-1.7.07-2.43V55.2a2.4,2.4,0,0,0-.44-1.64,2.16,2.16,0,0,0-1.58-.46H76.6l-.31,0-.09-2c1.51-.15,3-.34,4.64-.58S84.06,50,85.73,49.69Z"/><path d="M112,40c-.08,1.87-.13,3.87-.17,6s0,4.63,0,7.5v2.73q0,4.94.07,6.84a13,13,0,0,0,.26,2.54,1.15,1.15,0,0,0,.66.76,3.1,3.1,0,0,0,1.4.26h.23a1.42,1.42,0,0,1,.27,0l0,2.17c-1.3-.12-2.48-.22-3.55-.28s-2-.09-2.74-.09-1.69,0-2.74.09-2.22.16-3.49.28V66.59a1.66,1.66,0,0,1,.27,0h.28a2.06,2.06,0,0,0,2-.91,11.24,11.24,0,0,0,.51-4.35V57.55l0-3.91V47a5.87,5.87,0,0,0-.43-2.78,1.72,1.72,0,0,0-1.56-.65l-.29,0-.54.05-.11-2c1.65-.2,3.29-.44,4.92-.73S110.43,40.37,112,40Z"/><path d="M137.08,40c-.1,3.41-.18,6.84-.25,10.27s-.09,6.92-.09,10.47v2a7.46,7.46,0,0,0,.34,2.83,1.3,1.3,0,0,0,1.26.64,2.38,2.38,0,0,0,.63-.1,6.21,6.21,0,0,0,.81-.29l.43,1.91A32.4,32.4,0,0,1,135.64,69a36.23,36.23,0,0,1-4.89.67,10.85,10.85,0,0,1-.21-1.27c0-.47-.08-1-.11-1.57a13.48,13.48,0,0,1-3,1.95,7,7,0,0,1-2.84.63,7.73,7.73,0,0,1-6-2.68,10.48,10.48,0,0,1,.6-14,10.52,10.52,0,0,1,7.61-2.9,11.36,11.36,0,0,1,1.85.15,9.93,9.93,0,0,1,1.78.47c0-.57,0-1.11,0-1.63s0-1,0-1.45a6.77,6.77,0,0,0-.45-3.16,2,2,0,0,0-1.74-.65h-.54l-.37,0V41.52c1.63-.12,3.26-.31,4.87-.56S135.47,40.38,137.08,40Zm-6.72,14a6.79,6.79,0,0,0-1.39-.6,4.78,4.78,0,0,0-1.34-.2,3.64,3.64,0,0,0-3.1,1.44,6.75,6.75,0,0,0-1.07,4.11,9.2,9.2,0,0,0,1.13,4.91,3.4,3.4,0,0,0,3,1.83,3.68,3.68,0,0,0,1.25-.26,8.61,8.61,0,0,0,1.52-.82c0-.9,0-1.76,0-2.59s0-1.61,0-2.38c0-.95,0-1.86,0-2.73S130.37,54.91,130.36,54Z"/><path d="M.89,106.48l.36,0H1.8a2.24,2.24,0,0,0,2.12-.93c.35-.61.53-2.26.53-5V97.85l0-3.77v-6a4.48,4.48,0,0,0-.6-2.72,2.7,2.7,0,0,0-2.18-.73l-.34,0-.37,0V82.36c1.46.12,2.71.21,3.74.27s1.94.1,2.72.1c1.21,0,2.81-.09,4.8-.25s3.38-.25,4.16-.25a13.21,13.21,0,0,1,7.17,1.68,5.11,5.11,0,0,1,2.63,4.48,5.27,5.27,0,0,1-1.54,3.74,10.64,10.64,0,0,1-4.53,2.57,10.5,10.5,0,0,1,5.74,2.12,5.69,5.69,0,0,1,1.92,4.54,6.17,6.17,0,0,1-3.41,5.46q-3.42,2.06-9.28,2.05-1,0-3.81-.24c-1.9-.16-3.47-.24-4.72-.24-.32,0-1.14,0-2.46.14l-3.24.23Zm11-12.92H13c.68,0,1.79,0,3.31-.07h.22a5.22,5.22,0,0,0,1.66-1.72,4,4,0,0,0,.58-2.08,3.61,3.61,0,0,0-1.2-2.89,5.08,5.08,0,0,0-3.4-1c-.2,0-.63,0-1.31.11l-1,.11v4.42c0,.37,0,.91,0,1.61S11.86,93.24,11.86,93.56Zm0,11.4a8.88,8.88,0,0,0,1.46.35,11.68,11.68,0,0,0,1.62.11,5.18,5.18,0,0,0,3.57-1.18,4,4,0,0,0,1.33-3.12,4,4,0,0,0-1.47-3.29,6.42,6.42,0,0,0-4.11-1.19q-.7,0-2.19.06l-.24,0c0,1.37,0,2.82,0,4.34V105Z"/><path d="M49.55,99.69H41.2c-.77,0-1.49,0-2.17,0s-1.3.09-1.87.17a5.73,5.73,0,0,0,1.68,3.84,5.67,5.67,0,0,0,4,1.32,9.51,9.51,0,0,0,2.53-.4,20.26,20.26,0,0,0,3.17-1.27l1.06,2.32a21.12,21.12,0,0,1-5,2.84,13.79,13.79,0,0,1-4.86.89,9.56,9.56,0,0,1-7-2.66,9.29,9.29,0,0,1-2.68-6.92,10.1,10.1,0,0,1,3-7.48,10.25,10.25,0,0,1,7.5-3,8.44,8.44,0,0,1,6.58,2.67,10.43,10.43,0,0,1,2.42,7.27Zm-6.09-2.94a5.84,5.84,0,0,0-1-3.17,2.7,2.7,0,0,0-4.46.1,6,6,0,0,0-.9,3.37c1.52,0,2.79,0,3.81-.07S42.78,96.85,43.46,96.75Z"/><path d="M.82,146.48l.32,0h.53a2.49,2.49,0,0,0,2.26-.91q.6-.9.6-4c0-.32,0-.94,0-1.85s0-1.65,0-2.21v-4.27c0-.45,0-1.25,0-2.4s0-2.08,0-2.8a4.33,4.33,0,0,0-.65-2.77,3.18,3.18,0,0,0-2.43-.73H1v-2.27c2.11.13,4.08.22,5.93.28s3.61.09,5.28.09c1.33,0,3,0,5-.09s4.46-.15,7.45-.28c0,1.26.09,2.5.2,3.71s.26,2.4.45,3.59L23,130a4.46,4.46,0,0,0-1.7-3.3q-1.35-.89-5.13-.88c-.82,0-1.58,0-2.29,0s-1.38.06-2,.11v8.22l1.82,0,1.61,0a9.06,9.06,0,0,0,4-.57,2.42,2.42,0,0,0,1-2.12l2.21.16c-.11,1.17-.19,2.13-.24,2.9s-.08,1.43-.08,2,0,.95,0,1.6.05,1.36.07,2.15l-2.11.07a3.47,3.47,0,0,0-.68-2.56c-.45-.39-1.81-.59-4.07-.59H11.86v4.53q0,3.14.6,4a2.73,2.73,0,0,0,2.33.82h.87v2.26c-1.71-.14-3.17-.24-4.38-.29s-2.27-.08-3.17-.08c-.67,0-1.57,0-2.7.08s-2.67.15-4.61.29Z"/><path d="M36.06,120q-.11,2.81-.17,6t0,7.5v2.73q0,4.93.07,6.84a13,13,0,0,0,.26,2.54,1.15,1.15,0,0,0,.66.76,3.1,3.1,0,0,0,1.4.26h.23a1.42,1.42,0,0,1,.27,0l0,2.17c-1.29-.12-2.48-.22-3.55-.28s-2-.09-2.74-.09-1.69,0-2.74.09-2.22.16-3.49.28v-2.17a1.66,1.66,0,0,1,.27,0h.29a2.05,2.05,0,0,0,2-.91,11.24,11.24,0,0,0,.51-4.35v-3.81l0-3.91V127a5.74,5.74,0,0,0-.43-2.78,1.72,1.72,0,0,0-1.55-.65l-.29,0-.55,0-.11-2c1.66-.2,3.3-.44,4.93-.73S34.49,120.37,36.06,120Z"/><path d="M51.47,129.43a11.8,11.8,0,0,1,8.18,2.79,9.87,9.87,0,0,1-.06,14.42,11.85,11.85,0,0,1-8.16,2.81,11.9,11.9,0,0,1-8.08-2.7,8.83,8.83,0,0,1-3.1-7,9.66,9.66,0,0,1,3.15-7.43A11.42,11.42,0,0,1,51.47,129.43Zm-.2,3.26a3,3,0,0,0-2.71,1.46,8,8,0,0,0-.93,4.27,12.76,12.76,0,0,0,1,5.71,3.22,3.22,0,0,0,3,1.94,3.05,3.05,0,0,0,2.78-1.49,8.64,8.64,0,0,0,.93-4.49,11.75,11.75,0,0,0-1-5.52A3.28,3.28,0,0,0,51.27,132.69Z"/><path d="M63.36,130.11l2.13.15c1.66.15,2.83.22,3.53.22s1.61,0,3-.16l2.78-.21v2.08h-.3a3,3,0,0,0-1.45.26.91.91,0,0,0-.42.84,1.94,1.94,0,0,0,.1.47c.07.23.18.55.32,1l2.86,8,3.19-8.3-.27-.76a3,3,0,0,0-.69-1.2,1.55,1.55,0,0,0-1-.29h-.29l-.19,0v-2.08c1.53.14,2.67.23,3.42.29s1.34.08,1.77.08c.72,0,1.56,0,2.51-.09s2.1-.15,3.43-.28v2.08h-.54a2.19,2.19,0,0,0-1.25.26,1,1,0,0,0-.35.89,2.34,2.34,0,0,0,.07.46,6.14,6.14,0,0,0,.19.64l2.94,8.47.24-.63a91.29,91.29,0,0,0,3.1-9,1,1,0,0,0-.37-.86,2,2,0,0,0-1.19-.28h-.25a1.53,1.53,0,0,1-.27,0v-2.08c.39,0,.95.1,1.67.17,1.26.14,2.14.2,2.65.2a25,25,0,0,0,2.64-.22l1.57-.15v2.08l-.09,0-.5,0a1.81,1.81,0,0,0-.9.21,1.63,1.63,0,0,0-.62.63,47.56,47.56,0,0,0-2.06,4.38q-1.58,3.61-5,11.79H84.68l-4-11q-2.16,5.33-4,10.74l-.09.22H71.45q-.92-2.53-2.4-6.76-2.88-8.18-3.49-9.33a1.69,1.69,0,0,0-.6-.7,1.66,1.66,0,0,0-.88-.22c-.14,0-.34,0-.61,0a.28.28,0,0,1-.11,0Z"/><path d="M119.14,139.69h-8.35c-.77,0-1.49,0-2.17.05s-1.3.09-1.87.17a5.73,5.73,0,0,0,1.68,3.84,5.67,5.67,0,0,0,4,1.32,9.51,9.51,0,0,0,2.53-.4,20.26,20.26,0,0,0,3.17-1.27l1.06,2.32a21.12,21.12,0,0,1-5,2.84,13.79,13.79,0,0,1-4.86.89,9.56,9.56,0,0,1-7-2.66,9.29,9.29,0,0,1-2.68-6.92,10.1,10.1,0,0,1,3-7.48,10.25,10.25,0,0,1,7.5-3,8.44,8.44,0,0,1,6.58,2.67,10.43,10.43,0,0,1,2.42,7.27Zm-6.08-2.94a5.92,5.92,0,0,0-1-3.17,2.7,2.7,0,0,0-4.46.1,6.09,6.09,0,0,0-.9,3.37c1.52,0,2.79,0,3.81-.07S112.38,136.85,113.06,136.75Z"/><path d="M131.19,129.39c-.07.86-.14,1.73-.19,2.59s-.1,1.73-.14,2.6a17.2,17.2,0,0,1,2.75-3.83,3.55,3.55,0,0,1,2.41-1,2.77,2.77,0,0,1,2.16,1,3.58,3.58,0,0,1,.88,2.45,3.22,3.22,0,0,1-.67,2.12,2.09,2.09,0,0,1-1.69.81,3.15,3.15,0,0,1-1.49-.56,3,3,0,0,0-1.44-.57,2.31,2.31,0,0,0-1.22.43,8,8,0,0,0-1.51,1.28c0,.51,0,1,0,1.57s0,1.26,0,2.14v2.17c0,1.82.2,3,.62,3.43a3.24,3.24,0,0,0,2.46.7H135v2c-1.56-.12-3-.22-4.19-.28s-2.34-.09-3.35-.09c-.58,0-1.41,0-2.48.09s-2.26.16-3.55.28v-2.1l.3,0,.26,0q2.51,0,2.51-5.72c0-.63,0-1.11,0-1.46l0-2.08V136a3.89,3.89,0,0,0-.44-2.29,2,2,0,0,0-1.58-.53H122l-.57,0-.11-2c1.58-.17,3.19-.42,4.83-.73S129.5,129.85,131.19,129.39Z"/><path d="M156.57,130.56a23.34,23.34,0,0,0,.13,2.46c.08.84.21,1.72.37,2.62l-2.43.47a4.85,4.85,0,0,0-1.35-3,5.49,5.49,0,0,0-5.53-.36,1.71,1.71,0,0,0-.92,1.48c0,1,1.35,1.83,4,2.4l.5.11a11.45,11.45,0,0,1,5.14,2.06,4.54,4.54,0,0,1,1.47,3.6,6.13,6.13,0,0,1-2.55,5.16,11.46,11.46,0,0,1-7,1.91,19.44,19.44,0,0,1-3.66-.34,16.75,16.75,0,0,1-3.41-1c0-.17,0-.36,0-.55s0-.5,0-.89c0-.81,0-1.57-.1-2.29a21,21,0,0,0-.31-2.11l2.26-.58a7.18,7.18,0,0,0,1.85,3.88,5.2,5.2,0,0,0,3.63,1.13,4.57,4.57,0,0,0,2.59-.63,2,2,0,0,0,.91-1.76c0-1-1.31-1.72-4-2.26l-.39-.1a11.52,11.52,0,0,1-5.13-2.08,4.66,4.66,0,0,1-1.51-3.69,5.86,5.86,0,0,1,2.4-4.85,10,10,0,0,1,6.3-1.86,20.84,20.84,0,0,1,3.28.26A20.52,20.52,0,0,1,156.57,130.56Z"/><path d="M165.46,141.23l2.43,1.44a4.42,4.42,0,0,1,1.41,1.23,2.55,2.55,0,0,1,.41,1.48,2.34,2.34,0,0,1-.46,1.42,5.07,5.07,0,0,1-1.5,1.27l-2.25,1.41L163,148a4.11,4.11,0,0,1-1.36-1.14,2.45,2.45,0,0,1-.4-1.4,2.78,2.78,0,0,1,.46-1.57,4,4,0,0,1,1.37-1.21Z"/></g></g></svg>